<svg width="32" height="32" viewBox="0 0 32 32" fill="none" xmlns="http://www.w3.org/2000/svg">
<g opacity="0.72">
<path d="M29.4163 27.9998C29.4163 28.6902 29.976 29.2498 30.6663 29.2498C31.3567 29.2498 31.9163 28.6902 31.9163 27.9998H29.4163ZM0.0830078 27.9998C0.0830078 28.6902 0.642652 29.2498 1.33301 29.2498C2.02336 29.2498 2.58301 28.6902 2.58301 27.9998H0.0830078ZM2.58301 27.9998C2.58301 25.3013 4.18223 23.3226 6.76662 21.9523C9.37522 20.5691 12.8259 19.9165 15.9997 19.9165V17.4165C12.546 17.4165 8.66337 18.1169 5.5955 19.7435C2.50341 21.383 0.0830078 24.071 0.0830078 27.9998H2.58301ZM15.9997 19.9165C19.1734 19.9165 22.6241 20.5691 25.2327 21.9523C27.8171 23.3226 29.4163 25.3013 29.4163 27.9998H31.9163C31.9163 24.071 29.4959 21.383 26.4038 19.7435C23.336 18.1169 19.4533 17.4165 15.9997 17.4165V19.9165Z" fill="white"/>
<path d="M12 9.3335C12 7.12436 13.7909 5.3335 16 5.3335C18.2091 5.3335 20 7.12436 20 9.3335C20 10.8477 19.1587 12.1654 17.9179 12.8446C16.949 13.3749 16 14.2289 16 15.3335V18.6668" stroke="white" stroke-width="2.5" stroke-linecap="round" stroke-linejoin="round"/>
</g>
</svg>
