<svg width="32" height="32" viewBox="0 0 32 32" fill="none" xmlns="http://www.w3.org/2000/svg">
<g opacity="0.72">
<path fill-rule="evenodd" clip-rule="evenodd" d="M23.41 1.51823C24.0287 1.82452 24.282 2.57437 23.9757 3.19305L21.363 8.47041C21.0567 9.0891 20.3069 9.34235 19.6882 9.03606C19.0695 8.72976 18.8163 7.97992 19.1226 7.36123L21.7352 2.08387C22.0415 1.46518 22.7913 1.21193 23.41 1.51823ZM10.5531 8.97007C11.7095 7.31463 14.0638 7.11085 15.4822 8.54342L23.2248 16.3631C24.6432 17.7957 24.4415 20.1734 22.8024 21.3413L10.0589 30.4215C8.37731 31.6196 6.08589 31.4213 4.63073 29.9516L2.02773 27.3227C0.572568 25.8531 0.376189 23.5388 1.56253 21.8405L10.5531 8.97007ZM13.7233 10.3199C13.3959 9.98934 12.8526 10.0364 12.5858 10.4184L3.59516 23.2888C3.10667 23.9881 3.18753 24.9411 3.78672 25.5462L6.38971 28.1751C6.9889 28.7803 7.93243 28.862 8.62483 28.3686L21.3683 19.2884C21.7466 19.0189 21.7931 18.4702 21.4658 18.1396L13.7233 10.3199ZM25.4682 13.2626C24.7778 13.2626 24.2182 13.8222 24.2182 14.5126C24.2182 15.2029 24.7778 15.7626 25.4682 15.7626H28.0809C28.7712 15.7626 29.3309 15.2029 29.3309 14.5126C29.3309 13.8222 28.7712 13.2626 28.0809 13.2626H25.4682ZM16.3238 2.70779C17.0142 2.70779 17.5738 3.26744 17.5738 3.95779V5.27713C17.5738 5.96749 17.0142 6.52713 16.3238 6.52713C15.6335 6.52713 15.0738 5.96749 15.0738 5.27713V3.95779C15.0738 3.26744 15.6335 2.70779 16.3238 2.70779ZM26.6848 10.351C27.3011 10.0398 27.5484 9.28795 27.2372 8.67171C26.926 8.05547 26.1742 7.80818 25.5579 8.11937L24.2516 8.77904C23.6353 9.09023 23.3881 9.84206 23.6992 10.4583C24.0104 11.0745 24.7623 11.3218 25.3785 11.0106L26.6848 10.351Z" fill="white"/>
</g>
</svg>
