<svg width="32" height="32" viewBox="0 0 32 32" fill="none" xmlns="http://www.w3.org/2000/svg">
<g opacity="0.72">
<path fill-rule="evenodd" clip-rule="evenodd" d="M4.81503 5.3788C4.95567 4.53498 5.68575 3.9165 6.54122 3.9165H9.4165L9.4165 13.3332C9.4165 14.852 8.18528 16.0832 6.6665 16.0832C5.14772 16.0832 3.9165 14.852 3.9165 13.3332V11.6597C3.9165 11.0675 3.96543 10.4764 4.06277 9.89236L4.81503 5.3788ZM1.4165 13.3332V11.6597C1.4165 10.9298 1.4768 10.2013 1.59678 9.48137L2.34904 4.96781C2.69059 2.91851 4.46365 1.4165 6.54122 1.4165H25.4585C27.536 1.4165 29.3091 2.91851 29.6506 4.96781L30.4029 9.48137C30.5229 10.2013 30.5832 10.9298 30.5832 11.6597V13.3332C30.5832 15.2936 29.5087 17.003 27.9165 17.9047V26.3332C27.9165 28.6804 26.0137 30.5832 23.6665 30.5832H8.33317C5.98596 30.5832 4.08317 28.6804 4.08317 26.3332V17.9047C2.49099 17.003 1.4165 15.2936 1.4165 13.3332ZM28.0832 13.3332V11.6597C28.0832 11.0675 28.0343 10.4764 27.9369 9.89236L27.1846 5.37881C27.044 4.53498 26.3139 3.9165 25.4585 3.9165H22.5832L22.5832 13.3332V13.3357C22.5845 14.8533 23.8152 16.0832 25.3332 16.0832C26.8519 16.0832 28.0832 14.852 28.0832 13.3332ZM20.0832 3.9165H11.9165L11.9165 13.3332C11.9165 13.9561 12.2502 14.6153 12.9786 15.1616C13.7073 15.7082 14.7714 16.0832 15.9998 16.0832C17.2283 16.0832 18.2923 15.7082 19.0211 15.1616C19.7484 14.6161 20.0822 13.9579 20.0832 13.3358L20.0832 13.3332L20.0832 3.9165ZM21.1982 16.5684C20.989 16.7827 20.7619 16.981 20.5211 17.1616C19.3195 18.0628 17.7169 18.5832 15.9998 18.5832C14.2828 18.5832 12.6801 18.0628 11.4786 17.1616C11.2378 16.981 11.0107 16.7827 10.8015 16.5684C9.84046 17.795 8.34553 18.5832 6.6665 18.5832C6.63867 18.5832 6.61089 18.583 6.58317 18.5825V26.3332C6.58317 27.2997 7.36667 28.0832 8.33317 28.0832H23.6665C24.633 28.0832 25.4165 27.2997 25.4165 26.3332V18.5825C25.3888 18.583 25.361 18.5832 25.3332 18.5832C23.6541 18.5832 22.1592 17.795 21.1982 16.5684Z" fill="white"/>
</g>
</svg>
