<svg width="32" height="32" viewBox="0 0 32 32" fill="none" xmlns="http://www.w3.org/2000/svg">
<g opacity="0.72">
<path d="M20.0002 22.6668C25.8912 22.6668 30.6668 17.8912 30.6668 12.0002C30.6668 10.4931 30.3543 9.05906 29.7905 7.75929C29.7208 7.59856 29.5106 7.56461 29.3895 7.69129L25.4136 11.8537C24.6383 12.6654 23.3469 12.6802 22.5532 11.8865L21.3335 10.6668L20.2324 9.67501C19.3813 8.90832 19.3468 7.58479 20.1568 6.77479L24.321 2.61053C24.4432 2.48837 24.4075 2.2822 24.2491 2.21332C22.9472 1.64732 21.5103 1.3335 20.0002 1.3335C14.1091 1.3335 9.3335 6.10912 9.3335 12.0002C9.3335 17.8912 14.1091 22.6668 20.0002 22.6668Z" stroke="white" stroke-width="2.5"/>
<path d="M10.667 17.3335L2.0812 25.9193C1.30016 26.7003 1.30016 27.9667 2.08121 28.7477L3.25278 29.9193C4.03383 30.7003 5.30016 30.7003 6.08121 29.9193L14.667 21.3335" stroke="white" stroke-width="2.5"/>
</g>
</svg>
