<svg width="32" height="32" viewBox="0 0 32 32" fill="none" xmlns="http://www.w3.org/2000/svg">
<g opacity="0.72" clip-path="url(#clip0)">
<path d="M13.1211 15.8144C11.1715 13.1211 8.32413 11.5051 5.84578 10.5555C3.74836 9.75179 1.99277 9.45518 1.44365 9.37619C1.37045 9.89278 1.14148 11.7829 1.31134 14.1861C1.50649 16.9471 2.21932 20.2575 4.17298 22.9564C6.12259 25.6497 8.9699 27.2657 11.4482 28.2153C13.5456 29.019 15.3012 29.3156 15.8503 29.3946C15.9235 28.878 16.1525 26.9879 15.9826 24.5847C15.7875 21.8238 15.0747 18.5133 13.1211 15.8144ZM13.1211 15.8144L14.1336 15.0814L13.1211 15.8144Z" stroke="white" stroke-width="2.5"/>
<path d="M16.1497 29.3946C16.0765 28.878 15.8475 26.9879 16.0174 24.5847C16.2125 21.8238 16.9254 18.5133 18.879 15.8144C20.8287 13.1211 23.676 11.5051 26.1543 10.5555C28.2517 9.75181 30.0073 9.4552 30.5564 9.3762C30.6296 9.89239 30.8586 11.7826 30.6887 14.1861C30.4936 16.947 29.7807 20.2575 27.8271 22.9564C25.8774 25.6497 23.0301 27.2657 20.5518 28.2154C18.4544 29.019 16.6989 29.3156 16.1497 29.3946Z" stroke="white" stroke-width="2.5"/>
<path d="M18.9274 6.47335L19.9855 5.80783L18.9274 6.47335C20.9622 9.70837 21.9948 13.0051 21.9948 15.9996C21.9948 18.9942 20.9621 22.2908 18.9274 25.5259C17.6628 27.5365 16.405 28.9078 15.9993 29.3303C15.5936 28.9078 14.3359 27.5365 13.0713 25.5259L12.0236 26.1849L13.0713 25.5259C11.0365 22.2909 10.0039 18.9942 10.0039 15.9996C10.0039 13.0051 11.0365 9.70847 13.0713 6.47335C14.3359 4.46268 15.5937 3.09136 15.9994 2.66894C16.4045 3.09076 17.6625 4.4622 18.9274 6.47335ZM16.1343 29.468L16.1341 29.4678L16.1343 29.468Z" fill="#AA4586" stroke="white" stroke-width="2.5"/>
</g>
<defs>
<clipPath id="clip0">
<rect width="32" height="32" fill="white"/>
</clipPath>
</defs>
</svg>
