<svg width="32" height="32" viewBox="0 0 32 32" fill="none" xmlns="http://www.w3.org/2000/svg">
<g opacity="0.72">
<path fill-rule="evenodd" clip-rule="evenodd" d="M13.3335 0.0834961C12.6431 0.0834961 12.0835 0.64314 12.0835 1.3335C12.0835 2.02385 12.6431 2.5835 13.3335 2.5835H14.7502V4.0835H9.3335C6.434 4.0835 4.0835 6.434 4.0835 9.33349V24.0002C4.0835 26.8997 6.43401 29.2502 9.3335 29.2502H9.41956C9.41775 29.2777 9.41683 29.3055 9.41683 29.3335C9.41683 30.0239 9.97647 30.5835 10.6668 30.5835H12.0002C12.6905 30.5835 13.2502 30.0239 13.2502 29.3335C13.2502 29.3055 13.2492 29.2777 13.2474 29.2502H18.7529C18.7511 29.2777 18.7502 29.3055 18.7502 29.3335C18.7502 30.0239 19.3098 30.5835 20.0002 30.5835H21.3335C22.0239 30.5835 22.5835 30.0239 22.5835 29.3335C22.5835 29.3055 22.5826 29.2777 22.5808 29.2502H22.6668C25.5663 29.2502 27.9168 26.8997 27.9168 24.0002V9.3335C27.9168 6.434 25.5663 4.0835 22.6668 4.0835H17.2502V2.5835H18.6668C19.3572 2.5835 19.9168 2.02385 19.9168 1.3335C19.9168 0.64314 19.3572 0.0834961 18.6668 0.0834961H16.0002H13.3335ZM16.0002 6.5835H9.3335C7.81471 6.5835 6.5835 7.81471 6.5835 9.33349V24.0002C6.5835 25.5189 7.81472 26.7502 9.3335 26.7502H22.6668C24.1856 26.7502 25.4168 25.5189 25.4168 24.0002V9.3335C25.4168 7.81471 24.1856 6.5835 22.6668 6.5835H16.0002Z" fill="white"/>
</g>
</svg>
