<svg width="32" height="32" viewBox="0 0 32 32" fill="none" xmlns="http://www.w3.org/2000/svg">
<g opacity="0.72">
<path d="M9.70354 3.6665H22.3173L22.3173 1.6665H9.70354L9.70354 3.6665ZM22.814 4.22372L20.0881 27.8904L22.075 28.1192L24.8009 4.45256L22.814 4.22372ZM19.5914 28.3332H12.723L12.723 30.3332H19.5914L19.5914 28.3332ZM12.2271 27.8965L9.20756 4.22978L7.22364 4.4829L10.2431 28.1496L12.2271 27.8965ZM12.723 28.3332C12.4714 28.3332 12.2589 28.1461 12.2271 27.8965L10.2431 28.1496C10.4024 29.3978 11.4646 30.3332 12.723 30.3332L12.723 28.3332ZM20.0881 27.8904C20.059 28.1427 19.8454 28.3332 19.5914 28.3332L19.5914 30.3332C20.8614 30.3332 21.9297 29.3809 22.075 28.1192L20.0881 27.8904ZM22.3173 3.6665C22.6161 3.6665 22.8482 3.92687 22.814 4.22372L24.8009 4.45256C24.9719 2.96833 23.8114 1.6665 22.3173 1.6665L22.3173 3.6665ZM9.70354 1.6665C8.19724 1.6665 7.033 2.98872 7.22364 4.4829L9.20756 4.22978C9.16943 3.93095 9.40228 3.6665 9.70354 3.6665L9.70354 1.6665Z" fill="white"/>
<path d="M10.6665 22.6665L21.3332 22.6665" stroke="white" stroke-width="2" stroke-linecap="round" stroke-linejoin="round"/>
</g>
</svg>
