<svg width="32" height="32" viewBox="0 0 32 32" fill="none" xmlns="http://www.w3.org/2000/svg">
<g opacity="0.72">
<path fill-rule="evenodd" clip-rule="evenodd" d="M3.91699 2.6665C3.91699 1.97615 3.35735 1.4165 2.66699 1.4165C1.97664 1.4165 1.41699 1.97615 1.41699 2.6665V11.6665C1.41699 14.0137 3.31978 15.9165 5.66699 15.9165H6.75033V29.3332C6.75033 30.0235 7.30997 30.5832 8.00033 30.5832C8.69068 30.5832 9.25033 30.0235 9.25033 29.3332V15.9165H10.3337C12.6809 15.9165 14.5837 14.0137 14.5837 11.6665V2.6665C14.5837 1.97615 14.024 1.4165 13.3337 1.4165C12.6433 1.4165 12.0837 1.97615 12.0837 2.6665V11.6665C12.0837 12.633 11.3002 13.4165 10.3337 13.4165H9.25033V3.99984C9.25033 3.30948 8.69068 2.74984 8.00033 2.74984C7.30997 2.74984 6.75033 3.30948 6.75033 3.99984V13.4165H5.66699C4.70049 13.4165 3.91699 12.633 3.91699 11.6665V2.6665ZM26.667 1.4165C23.7675 1.4165 21.417 3.76701 21.417 6.6665V18.9998C21.417 20.2425 22.4244 21.2498 23.667 21.2498H28.0837V29.3332C28.0837 30.0235 28.6433 30.5832 29.3337 30.5832C30.024 30.5832 30.5837 30.0235 30.5837 29.3332V19.9998V2.6665C30.5837 1.97615 30.024 1.4165 29.3337 1.4165H26.667ZM28.0837 3.9165V18.7498H23.917V6.6665C23.917 5.14772 25.1482 3.9165 26.667 3.9165H28.0837Z" fill="white"/>
</g>
</svg>
